HIERARCHY
ROOT SpineBase
{
  OFFSET 0.000000 0.000000 0.000000
  CHANNELS 6 Xposition Yposition Zposition Zrotation Xrotation Yrotation
  JOINT SpineMid
  {
    OFFSET 0.000000 25.751006 0.000000
    CHANNELS 3 Zrotation Xrotation Yrotation
    JOINT SpineShoulder
    {
      OFFSET 0.073084 19.411199 -0.861223
      CHANNELS 3 Zrotation Xrotation Yrotation
      JOINT Neck
      {
        OFFSET 0.059309 6.541082 -0.596042
        CHANNELS 3 Zrotation Xrotation Yrotation
        JOINT Head
        {
          OFFSET 5.010975 13.912766 0.085463
          CHANNELS 3 Zrotation Xrotation Yrotation
          End Site
          {
            OFFSET 0 0 0
          }
        }
      }
      JOINT ShoulderLeft
      {
        OFFSET -10.805111 1.267161 -8.750255
        CHANNELS 3 Zrotation Xrotation Yrotation
        JOINT ElbowLeft
        {
          OFFSET -4.130420 -20.296053 -11.022664
          CHANNELS 3 Zrotation Xrotation Yrotation
          JOINT WristLeft
          {
            OFFSET 11.948358 -12.235047 -15.152845
            CHANNELS 3 Zrotation Xrotation Yrotation
            JOINT HandLeft
            {
              OFFSET 2.868298 -3.974965 -5.122787
              CHANNELS 3 Zrotation Xrotation Yrotation
              JOINT HandTipLeft
              {
                OFFSET 3.070008 -4.342826 -4.178373
                CHANNELS 3 Zrotation Xrotation Yrotation
                End Site
                {
                  OFFSET 0 0 0
                }
              }
              JOINT ThumbLeft
              {
                OFFSET 3.741790 -0.186142 0.145305
                CHANNELS 3 Zrotation Xrotation Yrotation
                End Site
                {
                  OFFSET 0 0 0
                }
              }
            }
          }
        }
      }
      JOINT ShoulderRight
      {
        OFFSET 14.574923 -3.896997 7.141044
        CHANNELS 3 Zrotation Xrotation Yrotation
        JOINT ElbowRight
        {
          OFFSET 5.121738 -18.636913 2.156627
          CHANNELS 3 Zrotation Xrotation Yrotation
          JOINT WristRight
          {
            OFFSET 8.424723 -12.600687 -21.198024
            CHANNELS 3 Zrotation Xrotation Yrotation
            JOINT HandRight
            {
              OFFSET -0.319936 -2.970311 -4.456595
              CHANNELS 3 Zrotation Xrotation Yrotation
              JOINT HandTipRight
              {
                OFFSET 1.726957 -3.902859 -5.128941
                CHANNELS 3 Zrotation Xrotation Yrotation
                End Site
                {
                  OFFSET 0 0 0
                }
              }
              JOINT ThumbRight
              {
                OFFSET 3.769026 1.814261 -1.427310
                CHANNELS 3 Zrotation Xrotation Yrotation
                End Site
                {
                  OFFSET 0 0 0
                }
              }
            }
          }
        }
      }
    }
  }
  JOINT HipLeft
  {
    OFFSET -6.029472 2.206212 -6.033562
    CHANNELS 3 Zrotation Xrotation Yrotation
    JOINT KneeLeft
    {
      OFFSET 7.815622 3.697763 -32.776576
      CHANNELS 3 Zrotation Xrotation Yrotation
      JOINT AnkleLeft
      {
        OFFSET 1.704021 -29.029873 -5.094592
        CHANNELS 3 Zrotation Xrotation Yrotation
        JOINT FootLeft
        {
          OFFSET 5.809781 -1.501389 -11.925322
          CHANNELS 3 Zrotation Xrotation Yrotation
          End Site
          {
            OFFSET 0 0 0
          }
        }
      }
    }
  }
  JOINT HipRight
  {
    OFFSET 7.086360 1.118520 0.109241
    CHANNELS 3 Zrotation Xrotation Yrotation
    JOINT KneeRight
    {
      OFFSET 24.328219 -0.328028 -16.235148
      CHANNELS 3 Zrotation Xrotation Yrotation
      JOINT AnkleRight
      {
        OFFSET -5.800776 -28.245015 -11.487904
        CHANNELS 3 Zrotation Xrotation Yrotation
        JOINT FootRight
        {
          OFFSET 6.795983 -1.363507 -12.229615
          CHANNELS 3 Zrotation Xrotation Yrotation
          End Site
          {
            OFFSET 0 0 0
          }
        }
      }
    }
  }
}
MOTION
Frames: 10
Frame Time: 0.033333
-58.692443 32.746739 347.952728 -0.000000 0.000000 -25.096054 -0.000000 0.000000 25.096054 -0.000000 0.000000 0.000000 -0.000000 0.000000 0.000000 0.000000 0.000000 0.000000 -0.000000 0.000000 0.000000 -0.000000 0.000000 0.000000 -0.000000 0.000000 0.000000 -0.000000 0.000000 0.000000 0.000000 0.000000 0.000000 0.000000 0.000000 0.000000 -0.000000 0.000000 0.000000 -0.000000 0.000000 0.000000 -0.000000 0.000000 0.000000 -0.000000 0.000000 0.000000 0.000000 0.000000 0.000000 0.000000 0.000000 0.000000 -0.000000 0.000000 25.096054 -0.000000 0.000000 0.000000 -0.000000 0.000000 0.000000 0.000000 0.000000 0.000000 -0.000000 0.000000 25.096054 -0.000000 0.000000 0.000000 -0.000000 0.000000 0.000000 0.000000 0.000000 0.000000
-58.715825 32.733417 347.914450 -0.035747 -0.002091 -24.924168 0.031536 0.016961 24.924162 -0.000000 0.000000 0.000000 -0.000000 0.000000 0.000000 0.000000 0.000000 0.000000 -0.000000 0.000000 0.000000 0.489587 0.693798 0.067451 -0.490439 -0.693196 -0.073382 0.516192 1.428643 0.499314 0.000000 0.000000 0.000000 0.000000 0.000000 0.000000 -2.386826 -0.857126 -0.532234 2.360737 -0.033467 -0.077033 1.100945 -3.658784 -0.532898 -0.438692 0.574060 -1.541995 0.000000 0.000000 0.000000 0.000000 0.000000 0.000000 0.031536 0.016961 24.924162 -0.000000 0.000000 0.000000 -0.972426 -2.431667 -2.138041 0.000000 0.000000 0.000000 0.031536 0.016961 24.924162 -0.000000 0.000000 0.000000 -4.735929 -7.826903 17.097979 0.000000 0.000000 0.000000
-58.731198 32.720689 347.883775 -0.048528 0.000225 -24.783733 0.044152 0.020138 24.783726 -0.000000 0.000000 0.000000 -0.000000 0.000000 0.000000 0.000000 0.000000 0.000000 0.868669 -1.033187 -0.255321 -0.046022 2.306378 0.454750 -0.270053 -0.571949 -0.427972 0.348026 1.965795 1.178101 0.000000 0.000000 0.000000 0.000000 0.000000 0.000000 -3.972385 -1.429083 -0.909516 3.918193 -0.003243 -0.118728 1.823496 -5.937281 -0.894268 -0.899651 0.829373 -2.337401 0.000000 0.000000 0.000000 0.000000 0.000000 0.000000 0.044152 0.020138 24.783726 -0.000000 0.000000 0.000000 -1.873455 -4.426605 -3.695791 0.000000 0.000000 0.000000 0.044152 0.020138 24.783726 -0.000000 0.000000 0.000000 -7.138587 -18.267099 36.995272 0.000000 0.000000 0.000000
-58.738562 32.708554 347.860704 -0.038335 0.006951 -24.675073 0.037737 0.009687 24.675072 -0.000000 0.000000 0.000000 0.610364 0.579758 -0.216059 0.000000 0.000000 0.000000 1.166161 -1.383588 -0.340628 -0.167040 3.107661 0.742724 -0.317710 -0.961339 -0.768797 0.499968 2.971300 1.733584 0.000000 0.000000 0.000000 0.000000 0.000000 0.000000 -4.770605 -1.737401 -1.112999 4.691720 0.046451 -0.121671 2.236185 -7.103291 -1.158597 -1.305137 0.689048 -2.610696 0.000000 0.000000 0.000000 0.000000 0.000000 0.000000 0.037737 0.009687 24.675072 -0.000000 0.000000 0.000000 -2.581274 -5.846904 -4.474406 0.000000 0.000000 0.000000 0.037737 0.009687 24.675072 -0.000000 0.000000 0.000000 -6.264721 -26.662241 53.400778 0.000000 0.000000 0.000000
-58.737917 32.697013 347.845236 -0.005162 0.018088 -24.598441 0.012223 -0.014297 24.598443 -0.000000 0.000000 0.000000 0.843757 0.680504 -0.255964 0.000000 0.000000 0.000000 1.384625 -1.636441 -0.403308 -0.374759 3.671467 1.081723 -0.305100 -1.411853 -1.190727 0.656085 4.023045 2.274456 0.000000 0.000000 0.000000 0.000000 0.000000 0.000000 -4.791172 -1.794494 -1.133971 4.693895 0.094990 -0.082949 2.380788 -7.312753 -1.367101 -1.643442 0.124414 -2.465807 0.000000 0.000000 0.000000 0.000000 0.000000 0.000000 0.012223 -0.014297 24.598443 -0.000000 0.000000 0.000000 -2.990033 -6.580146 -4.310078 0.000000 0.000000 0.000000 0.012223 -0.014297 24.598443 -0.000000 0.000000 0.000000 -4.571859 -31.079898 63.074928 0.000000 0.000000 0.000000
-58.729264 32.686065 347.837372 0.050997 0.033635 -24.554024 -0.032408 -0.051785 24.553995 -0.000000 0.000000 0.000000 1.093002 0.735768 -0.279688 0.000000 0.000000 0.000000 1.528860 -1.796755 -0.445707 -0.675338 3.994624 1.473106 -0.233210 -1.913297 -1.689087 0.822906 5.131072 2.804730 0.000000 0.000000 0.000000 0.000000 0.000000 0.000000 -4.034872 -1.601643 -0.971520 3.925351 0.139566 -0.002381 2.279266 -6.619821 -1.538043 -1.936040 -0.884928 -1.922709 0.000000 0.000000 0.000000 0.000000 0.000000 0.000000 -0.032408 -0.051785 24.553995 -0.000000 0.000000 0.000000 -3.037703 -6.540703 -3.104648 0.000000 0.000000 0.000000 -0.032408 -0.051785 24.553995 -0.000000 0.000000 0.000000 -3.855682 -32.382586 66.194470 0.000000 0.000000 0.000000
-58.719015 32.671057 347.824049 0.095482 0.053578 -24.562757 -0.064570 -0.088421 24.562663 -0.000000 0.000000 0.000000 1.424271 0.876655 -0.336890 0.000000 0.000000 0.000000 1.703362 -2.225335 -0.445177 -1.913662 4.212928 2.650635 0.380017 -2.455240 -2.815437 0.579154 6.290632 3.703336 0.000000 0.000000 0.000000 0.000000 0.000000 0.000000 -3.966882 -1.678188 -0.986263 3.872998 -0.258441 -0.341548 2.461033 -4.229644 -1.731994 -2.163821 -1.455290 -0.629250 0.000000 0.000000 0.000000 0.000000 0.000000 0.000000 -0.064570 -0.088421 24.562663 0.266859 -0.883108 -0.096732 -2.793359 -4.142050 1.212720 0.000000 0.000000 0.000000 0.364439 0.597456 24.325903 -0.673469 -0.448239 0.232220 -4.977314 -30.299594 61.124265 0.000000 0.000000 0.000000
-58.696133 32.661294 347.825990 0.200458 0.095775 -24.647774 -0.142253 -0.170647 24.647394 -0.000000 0.000000 0.000000 1.750983 0.836447 -0.326591 0.000000 0.000000 0.000000 1.579791 -2.191907 -0.386782 -2.297806 3.909517 2.997127 0.866047 -2.691272 -3.543879 0.581175 6.189753 3.637549 0.000000 0.000000 0.000000 0.000000 0.000000 0.000000 -1.897961 -0.771855 -0.446237 1.829122 -0.506591 -0.336227 1.605554 -2.262930 -1.195734 -2.959143 -5.066227 0.173167 0.000000 0.000000 0.000000 0.000000 0.000000 0.000000 -0.142253 -0.170647 24.647394 0.457083 -1.085058 -0.139781 -2.195419 -1.621355 4.636354 0.000000 0.000000 0.000000 0.330455 0.588763 24.428718 -0.744477 -0.495902 0.213729 -7.052194 -22.453312 44.858868 0.000000 0.000000 0.000000
-58.660590 32.654792 347.851799 0.353127 0.119590 -24.698258 -0.270856 -0.256198 24.697284 0.529736 0.722866 0.038399 1.382769 0.027129 -0.317382 0.000000 0.000000 0.000000 0.698503 -2.502473 -0.319274 -2.242122 3.147351 2.933342 0.596565 -3.664696 -3.926943 1.628356 8.477134 3.908388 0.000000 0.000000 0.000000 0.000000 0.000000 0.000000 1.623291 0.201983 0.466219 -2.161108 -0.906770 -0.518623 -0.937064 -3.484292 1.834861 -3.241737 -3.960296 0.292782 0.000000 0.000000 0.000000 0.000000 0.000000 0.000000 -0.270856 -0.256198 24.697284 0.576184 -1.186871 -0.165072 -1.367925 1.250979 6.854203 0.000000 0.000000 0.000000 0.209697 0.517238 24.474462 -0.757824 -0.504825 0.218389 -6.910447 -15.675583 31.858400 0.000000 0.000000 0.000000
-58.629429 32.656199 347.882685 0.518463 0.162079 -24.797241 -0.089946 0.513298 24.821253 0.114705 0.215701 0.034708 1.250893 -0.320759 -0.262811 0.000000 0.000000 0.000000 0.131819 -1.973843 -0.313921 -1.820639 2.272191 2.578540 -0.004573 -4.688599 -3.971356 2.485113 10.430290 4.124909 0.000000 0.000000 0.000000 0.000000 0.000000 0.000000 7.915608 2.203294 1.658169 -8.789935 1.808833 1.126815 -3.167895 -0.300055 0.993692 -5.693015 -9.383215 3.926686 0.000000 0.000000 0.000000 0.000000 0.000000 0.000000 -0.402691 -0.364576 24.795227 0.560167 -1.174316 -0.161744 -0.302299 4.095478 7.716438 0.000000 0.000000 0.000000 0.085824 0.421880 24.494329 -0.770640 -0.513115 0.297203 -4.397524 -7.056655 15.454286 0.000000 0.000000 0.000000
